# xmcd
#
# Track frame offsets: 
#        150
#        22660
#        49135
#        73063
#        95710
#        126758
#        153158
#        205625
#        245263
#        267505
#        293703
#
# Disc length: 4411 seconds
#
# Revision: 1
# Processed by: cddbd v1.5.2PL0 Copyright (c) Steve Scherf et al.
# Submitted via: ExactAudioCopy v0.99pb4
#
DISCID=9411390b
DTITLE=Ben Webster - Gene Ammons - Tenor Giants - Ben Webster Live at 
DTITLE=PIO and Gene Ammons In Sweden
DYEAR=1964
DGENRE=Jazz
TTITLE0=Cookin' for T
TTITLE1=Gone With the Wind
TTITLE2=Sunday
TTITLE3=Pennies from Heaven
TTITLE4=How Long Has This Been Going On?
TTITLE5=Sometimes I'm Happy
TTITLE6=Billie's Bounce
TTITLE7=There Is No Greater Love
TTITLE8=Polka Dots and Moon Beams
TTITLE9=Lover Man
TTITLE10=Ahus Jazz
EXTD=YEAR: 1962
EXTT0=
EXTT1=
EXTT2=
EXTT3=
EXTT4=
EXTT5=
EXTT6=
EXTT7=
EXTT8=
EXTT9=
EXTT10=
PLAYORDER=
